<svg xmlns="http://www.w3.org/2000/svg" xmlns:xlink="http://www.w3.org/1999/xlink" width="33px" height="50px" viewBox="0 0 33 50" version="1.1">
    <g id="surface1">
        <path style=" stroke:none;fill-rule:nonzero;fill:rgb(0%,68.235294%,93.72549%);fill-opacity:1;" d="M 16.535156 49.257812 C 16.535156 49.269531 16.554688 49.285156 16.554688 49.285156 C 16.554688 49.285156 32.394531 25.269531 32.394531 17.375 C 32.394531 5.757812 24.367188 0.707031 16.535156 0.6875 C 8.707031 0.707031 0.679688 5.757812 0.679688 17.375 C 0.679688 25.269531 16.527344 49.285156 16.527344 49.285156 C 16.527344 49.285156 16.535156 49.257812 16.535156 49.257812 Z M 11.046875 16.714844 C 11.046875 13.714844 13.507812 11.285156 16.546875 11.285156 C 19.582031 11.285156 22.042969 13.714844 22.042969 16.714844 C 22.042969 19.714844 19.574219 22.144531 16.535156 22.144531 C 13.507812 22.144531 11.046875 19.714844 11.046875 16.714844 Z M 11.046875 16.714844 "/>
    </g>
</svg>
